<svg xmlns="http://www.w3.org/2000/svg" viewBox="0 0 251.96 88.68"><defs><style>.cls-1{fill:#231f20;}.cls-2{fill:#29a9e1;}.cls-3{fill:#7b7b7b;}</style></defs><title>Asset 5</title><g id="Layer_2" data-name="Layer 2"><g id="Layer_1-2" data-name="Layer 1"><path class="cls-1" d="M36.23,56H0V1.87H17.87V39.18H36.23Z"/><path class="cls-1" d="M90.08,49.64a31,31,0,0,1-21.85,8.51,31,31,0,0,1-21.85-8.51,27.46,27.46,0,0,1-9.06-20.53A27.22,27.22,0,0,1,46.37,8.58,30.74,30.74,0,0,1,68.22,0,30.74,30.74,0,0,1,90.08,8.58a27,27,0,0,1,9.14,20.53A27.25,27.25,0,0,1,90.08,49.64Z"/><path class="cls-2" d="M77.36,20.53a13.54,13.54,0,0,0-18.36,0,11.37,11.37,0,0,0-3.74,8.59A11.65,11.65,0,0,0,59,37.77a13.76,13.76,0,0,0,18.36,0,11.24,11.24,0,0,0,3.91-8.66A11,11,0,0,0,77.36,20.53Z"/><path class="cls-1" d="M121.49,56H103.54V1.87h17.95Z"/><path class="cls-1" d="M182.48,56h-17.7l-.17.08L146.08,31.06V56H128.22V2l17.87-.08,18.45,24.66V1.87h17.95Z"/><path class="cls-1" d="M238.9,52c-6.9,5.31-11.22,6.17-19.86,6.17a30.81,30.81,0,0,1-21.85-8.51,27.17,27.17,0,0,1-9.06-20.53,27.21,27.21,0,0,1,9.06-20.6A30.81,30.81,0,0,1,219,0a34.77,34.77,0,0,1,19.44,6.48l-10.05,14.2-.17-.16A13,13,0,0,0,219,16.94a12.83,12.83,0,0,0-9.22,3.59A11.16,11.16,0,0,0,206,29.11c0,3.36.75,6.09,3.32,8.43s6.15,3.36,9.72,3.36,7.65-.55,10.22-3l.25-.23,11.22,12.57Z"/><path class="cls-1" d="M252,6.22a6,6,0,0,1-11.88,0,6,6,0,0,1,11.88,0Zm-10.4,0a4.34,4.34,0,0,0,4.51,4.34,4.34,4.34,0,1,0,0-8.67A4.35,4.35,0,0,0,241.56,6.22Zm3.56,2.85h-1.34V3.64A12.45,12.45,0,0,1,246,3.47a3.79,3.79,0,0,1,2,.4,1.47,1.47,0,0,1,.56,1.19c0,.6-.49,1.06-1.2,1.26v.07a1.62,1.62,0,0,1,1.06,1.32,4,4,0,0,0,.42,1.36h-1.45A4.46,4.46,0,0,1,247,7.74c-.11-.6-.46-.86-1.2-.86h-.63Zm0-3.08h.63c.74,0,1.34-.23,1.34-.79s-.39-.83-1.23-.83a3.41,3.41,0,0,0-.74.07Z"/><path class="cls-3" d="M45.86,81.16a.58.58,0,0,1-.07-.19,1.22,1.22,0,0,1,0-.28,1.21,1.21,0,0,1,0-.28.59.59,0,0,1,.07-.19q.24-.53.44-1l.39-.93q.19-.46.4-.92l.45-1H45.88c-.07,0-.14-.06-.21-.17a2.13,2.13,0,0,1-.2-.41,2.5,2.5,0,0,1-.13-.49.8.8,0,0,1,0-.41,1.56,1.56,0,0,0,.36-.11l.45-.18.42-.17.25-.12.38-.12.64-.22.62-.23a1.45,1.45,0,0,0,.32-.15,3.49,3.49,0,0,0,.61-1l.89-1.76q.38-.79.82-1.68t.94-1.76q.49-.87,1-1.66a9.84,9.84,0,0,1,1.14-1.39,5.59,5.59,0,0,1,1.24-1,2.69,2.69,0,0,1,1.32-.36,2.74,2.74,0,0,1,1.35.38,4.88,4.88,0,0,1,1.37,1.25,1.78,1.78,0,0,1,.32.65,1.69,1.69,0,0,1,0,.81.9.9,0,0,1-.6.19,1.39,1.39,0,0,1-.52-.16,1.68,1.68,0,0,1-.43-.33,2.28,2.28,0,0,1-.29-.36,7,7,0,0,0-.87-.06,3.27,3.27,0,0,0-1.42.28,3.2,3.2,0,0,0-1,.75,4.92,4.92,0,0,0-.74,1.12q-.32.64-.63,1.38l-.38.83q-.2.44-.42.85t-.38.69l-.42.8-.49.94v.24c0-.11.09-.16.22-.17a2.54,2.54,0,0,1,.47,0l1,.14a9,9,0,0,1,1,.22,5.19,5.19,0,0,1,.94.36,1.77,1.77,0,0,1,.67.55l-.59.57-1,0h-.87a6.94,6.94,0,0,0-1.33.11,2.83,2.83,0,0,0-1,.41,3.25,3.25,0,0,0-.84.83,9.64,9.64,0,0,0-.8,1.39q-.18.4-.49,1L48,80q-.3.59-.53,1c-.16.3-.24.45-.26.47l-.44.46-.21-.14-.27-.21a2.06,2.06,0,0,1-.25-.23Z"/><path class="cls-3" d="M57.3,81.56a1.7,1.7,0,0,1,0-.58q0-.56.14-1.42t.27-1.87q.17-1,.38-1.95t.45-1.65a2.58,2.58,0,0,1,.49-1,.73.73,0,0,1,.37-.23.41.41,0,0,1,.31.06,1,1,0,0,1,.26.26l.24.35a1.06,1.06,0,0,0,.1.16l.1.12a17.46,17.46,0,0,1,1.42-1.7,8.81,8.81,0,0,1,1.72-1.4,3.42,3.42,0,0,1,.53-.24q.42-.16.95-.31t1.11-.27a5.06,5.06,0,0,1,1-.12,1.69,1.69,0,0,1,.79.16.59.59,0,0,1,.3.57,1.81,1.81,0,0,1-.36.87,4.54,4.54,0,0,0-1.91.46A8,8,0,0,0,64.24,73a11.64,11.64,0,0,0-1.52,1.58,21.16,21.16,0,0,0-1.31,1.82q-.59.93-1.09,1.83l-.89,1.63q-.47.91-.82,1.46t-.66.55a.82.82,0,0,1-.29-.08,2.44,2.44,0,0,1-.35-.18h.14Z"/><path class="cls-3" d="M70.45,81.56a2.38,2.38,0,0,1-1.2-.94,2.56,2.56,0,0,1-.37-1.36,4.38,4.38,0,0,1,.29-1.48,9.17,9.17,0,0,1,.76-1.58A13.17,13.17,0,0,1,71,74.66a14.05,14.05,0,0,1,1.22-1.33,7.91,7.91,0,0,1,1.21-1,2.7,2.7,0,0,1,1-.43l.45,0h.45a4.17,4.17,0,0,1,1.43.22,2.64,2.64,0,0,1,1,.59,2.32,2.32,0,0,1,.55.89,3.43,3.43,0,0,1,.18,1.13,5.21,5.21,0,0,1-.25,1.53,7.83,7.83,0,0,1-.7,1.59,10.15,10.15,0,0,1-1.07,1.51,8.65,8.65,0,0,1-1.34,1.28,6.42,6.42,0,0,1-1.54.88,4.43,4.43,0,0,1-1.65.33A3.93,3.93,0,0,1,70.45,81.56Zm.24-1.74a.64.64,0,0,0,.67.55,2.49,2.49,0,0,0,1.08-.3,7.87,7.87,0,0,0,1.25-.78,12,12,0,0,0,1.26-1.1A10.65,10.65,0,0,0,76,76.93a7.86,7.86,0,0,0,.77-1.29,2.71,2.71,0,0,0,.3-1.13.74.74,0,0,0-.31-.61,1.78,1.78,0,0,0-1.06-.24,5.85,5.85,0,0,0-.77.06l-.21.19-.25.21q-.53.46-1.21,1.07A15.83,15.83,0,0,0,72,76.48a8.3,8.3,0,0,0-1,1.42,2.91,2.91,0,0,0-.41,1.4A1.83,1.83,0,0,0,70.69,79.82Z"/><path class="cls-3" d="M95.07,81.7a.52.52,0,0,1-.45,0,1.74,1.74,0,0,1-.48-.24,2.88,2.88,0,0,1-.4-.33,1.45,1.45,0,0,1-.19-.21l.06.2a1.37,1.37,0,0,1-.28-.54,2.47,2.47,0,0,1-.08-.62,3.18,3.18,0,0,1,.2-1.1,7.83,7.83,0,0,1,.42-1l.4-.83q.28-.59.6-1.25l.61-1.24q.29-.58.43-.82v-.1a4.11,4.11,0,0,0-1.08.61q-.72.52-1.61,1.27t-1.86,1.62q-1,.87-1.8,1.65l-1.44,1.38q-.61.59-.79.79-.73.26-1-.09a1.71,1.71,0,0,1-.29-1.1,6.65,6.65,0,0,1,.11-1.11q.11-.63.28-1.29t.35-1.27l.32-1.07a.7.7,0,0,0,.06-.19.29.29,0,0,1,.06-.15,1.71,1.71,0,0,0-.76.39,6.88,6.88,0,0,0-.84.82q-.44.49-.88,1.1l-.88,1.22q-.44.61-.86,1.18t-.82,1a4.52,4.52,0,0,1-.77.69,1.29,1.29,0,0,1-.73.26,1.12,1.12,0,0,1-.91-.57.7.7,0,0,1,0-.29.94.94,0,0,1,0-.29l.36-.73.54-1.12.65-1.3.66-1.3.56-1.11L82.9,74v0a6.1,6.1,0,0,1,.38-.66q.26-.41.52-.77l.48-.63a1.58,1.58,0,0,1,.23-.27h.79a2.38,2.38,0,0,1,.17.77,2.16,2.16,0,0,1-.08.66,2.48,2.48,0,0,1-.25.57q-.16.27-.32.51l-.21.35a3.32,3.32,0,0,0-.19.33q.95-.83,1.66-1.42t1.24-1a6.38,6.38,0,0,1,.86-.52,1.38,1.38,0,0,1,.55-.16.64.64,0,0,1,.49.16.72.72,0,0,1,.17.46,2.79,2.79,0,0,1-.06.7q-.08.41-.2.88l0,0q-.14.63-.28,1.35a7.34,7.34,0,0,0-.14,1.41v.34l.43-.35.49-.39.73-.55.46-.36.78-.59,1-.75.9-.67a4.81,4.81,0,0,1,.51-.36h0l.43-.31.71-.48.74-.49.51-.31,0,0a1.64,1.64,0,0,1,.83-.26,1,1,0,0,1,.82.37,1.41,1.41,0,0,1,.31.94,1.57,1.57,0,0,1,0,.34q0,.18-.08.4l-.36.65q-.18.32-.34.63-.47.85-.9,1.67a17.39,17.39,0,0,0-.76,1.68,12.16,12.16,0,0,0-.54,1.79A9.91,9.91,0,0,0,95.07,81.7Z"/><path class="cls-3" d="M113.26,81.32a1.91,1.91,0,0,1,0-.92,8,8,0,0,1,.36-1.29q.26-.72.63-1.56t.83-1.73q.46-.89,1-1.8l1-1.78q.42-.73.78-1.4t.65-1.24l.49-1a6.57,6.57,0,0,0,.29-.63l-.24.11-.26.13-.49.22a1.32,1.32,0,0,1-.51.12,1,1,0,0,1-.83-.49.77.77,0,0,1-.13-.51,1.09,1.09,0,0,1,.17-.47,1.75,1.75,0,0,1,.32-.38,2.86,2.86,0,0,1,.3-.24h0a35.75,35.75,0,0,1,3.45-2,26.58,26.58,0,0,1,3.17-1.35,20.31,20.31,0,0,1,2.79-.76,12.59,12.59,0,0,1,2.33-.25,5,5,0,0,1,2.58.55,1.74,1.74,0,0,1,.92,1.56,3.2,3.2,0,0,1-.76,1.8,10.79,10.79,0,0,1-2.41,2.21,31.86,31.86,0,0,1-4.26,2.47,56.7,56.7,0,0,1-6.33,2.6,1,1,0,0,0,.38.62,8.38,8.38,0,0,0,1,.8q.61.44,1.4.93t1.61,1l1.75,1.07q.86.53,1.52,1a7.31,7.31,0,0,1,1.08,1,1.4,1.4,0,0,1,.42.89,1,1,0,0,1-.55.87l0,0q-.18.08-.59-.16a8.39,8.39,0,0,1-.92-.62q-.5-.39-1-.83l-.94-.78-.63-.51-.71-.45-.71-.45h0q-1.07-.63-2.1-1.3a21.55,21.55,0,0,1-2-1.49c-.12,0-.26.12-.44.37a7.48,7.48,0,0,0-.54.94q-.29.57-.58,1.28t-.55,1.38l-.47,1.18a9.56,9.56,0,0,1-.47,1,4.18,4.18,0,0,1-.47.7.63.63,0,0,1-.47.27.57.57,0,0,1-.4-.17A1.13,1.13,0,0,1,113.26,81.32Zm6.31-9.87-.26-.36a.62.62,0,0,0,.28.06.08.08,0,0,1,0,0,0,0,0,0,0,0,0Zm10.05-6.93a21.05,21.05,0,0,0-3.87.31A7.57,7.57,0,0,0,123,65.9a6.59,6.59,0,0,0-2,2,14.58,14.58,0,0,0-1.43,3.22h.14a5.75,5.75,0,0,0,1.8-.37,20,20,0,0,0,2.27-1q1.2-.58,2.38-1.31a23.79,23.79,0,0,0,2.13-1.44,12.84,12.84,0,0,0,1.53-1.36,1.76,1.76,0,0,0,.59-1c0-.05-.08-.11-.24-.16Z"/><path class="cls-3" d="M132,81.58a2.35,2.35,0,0,1-1.43-1.12,3.6,3.6,0,0,1-.39-1.65,6.29,6.29,0,0,1,.08-1,6.05,6.05,0,0,1,.24-1q.22-.22.46-.48l.46-.53q.67-.73,1.48-1.57t1.69-1.63a18.62,18.62,0,0,1,1.82-1.44,9.57,9.57,0,0,1,1.87-1,1,1,0,0,1,.68-.07.85.85,0,0,1,.47.36,1.84,1.84,0,0,1,.26.66,4.29,4.29,0,0,1,.08.83,6.06,6.06,0,0,1,0,.76,6,6,0,0,1-.14.73,6.3,6.3,0,0,1-.19.61,1.36,1.36,0,0,1-.22.41,4.29,4.29,0,0,1-1.07.78q-.75.43-1.66.9l-1.5.8q-.77.43-1.4.84a7.14,7.14,0,0,0-1,.81,1.09,1.09,0,0,0-.41.71q0,.26.42.51l.22,0h.22a9.26,9.26,0,0,0,1.35-.11q.73-.11,1.5-.29t1.54-.4l1.46-.42,1-.27.88-.23.71.57A4.58,4.58,0,0,1,140,79.92a12.39,12.39,0,0,1-2.09,1,16.64,16.64,0,0,1-2.33.64,11,11,0,0,1-2.14.24,7.37,7.37,0,0,1-.78,0A3.6,3.6,0,0,1,132,81.58Zm5.34-9s-.06.1-.21.23l-.59.47-.8.61-.85.62-.74.51-.45.28a2.14,2.14,0,0,0,.71-.1,7,7,0,0,0,.87-.32,7.8,7.8,0,0,0,.9-.47,8.13,8.13,0,0,0,.8-.54,3.61,3.61,0,0,0,.57-.54.81.81,0,0,0,.22-.49s-.07-.06-.22-.1Z"/><path class="cls-3" d="M137.46,88.37a3.09,3.09,0,0,1-1.16-.68,3.73,3.73,0,0,1-.74-1,4.57,4.57,0,0,1-.41-1.11,5,5,0,0,1-.13-1.09,2.2,2.2,0,0,1,.44-1.47.83.83,0,0,1,1.09-.19,11.2,11.2,0,0,0,.15,2,4.55,4.55,0,0,0,.43,1.33,2,2,0,0,0,.65.75,1.53,1.53,0,0,0,.83.24,3.48,3.48,0,0,0,1.54-.42,8.16,8.16,0,0,0,1.65-1.12A13.23,13.23,0,0,0,143.38,84a14.42,14.42,0,0,0,1.35-1.92,11,11,0,0,0,.93-2,6,6,0,0,0,.35-1.93v-.23a1.07,1.07,0,0,0,0-.21,15.5,15.5,0,0,1-2.41,1.42,4.13,4.13,0,0,1-1.56.42,1.23,1.23,0,0,1-1-.39,1.59,1.59,0,0,1-.32-1,4.5,4.5,0,0,1,.29-1.43,11,11,0,0,1,.77-1.71,16.63,16.63,0,0,1,1.11-1.74,12.77,12.77,0,0,1,1.31-1.54,7.38,7.38,0,0,1,1.37-1.1,2.45,2.45,0,0,1,1.26-.42,1.61,1.61,0,0,1,.69.16,1.78,1.78,0,0,1,.61.49,3.6,3.6,0,0,1,.6,1.36,7.77,7.77,0,0,1,.19,1.77,14,14,0,0,1-.36,3,21.38,21.38,0,0,1-1,3.26A23.39,23.39,0,0,1,146,83.35a15.93,15.93,0,0,1-2,2.72A9.64,9.64,0,0,1,141.7,88a5.06,5.06,0,0,1-2.56.71,5.36,5.36,0,0,1-.86-.07A3.29,3.29,0,0,1,137.46,88.37Zm5.18-11.71a.48.48,0,0,0,0,.18v.3a1,1,0,0,1,0,.27.12.12,0,0,0,0,.11,1.6,1.6,0,0,0,.93-.23,4.27,4.27,0,0,0,.92-.71,7,7,0,0,0,.83-1,11.38,11.38,0,0,0,.68-1.13,7.19,7.19,0,0,0,.47-1.07,2.74,2.74,0,0,0,.17-.82.06.06,0,0,1,0-.06,1.09,1.09,0,0,0-.38.17,4.87,4.87,0,0,0-.61.49h0l-.73.68q-.46.43-.91.92t-.85,1A3.64,3.64,0,0,0,142.64,76.65Z"/><path class="cls-3" d="M151.67,81.58a2.35,2.35,0,0,1-1.43-1.12,3.6,3.6,0,0,1-.39-1.65,6.29,6.29,0,0,1,.08-1,6.05,6.05,0,0,1,.24-1q.22-.22.46-.48l.46-.53q.67-.73,1.48-1.57t1.69-1.63a18.62,18.62,0,0,1,1.82-1.44,9.57,9.57,0,0,1,1.87-1,1,1,0,0,1,.68-.07.85.85,0,0,1,.47.36,1.84,1.84,0,0,1,.26.66,4.29,4.29,0,0,1,.08.83,6.06,6.06,0,0,1,0,.76,6,6,0,0,1-.14.73A6.3,6.3,0,0,1,159,74a1.36,1.36,0,0,1-.22.41,4.29,4.29,0,0,1-1.07.78q-.75.43-1.66.9l-1.5.8q-.77.43-1.4.84a7.14,7.14,0,0,0-1,.81,1.09,1.09,0,0,0-.41.71q0,.26.42.51l.22,0h.22a9.26,9.26,0,0,0,1.35-.11q.73-.11,1.5-.29T157,79l1.46-.42,1-.27.88-.23.71.57a4.58,4.58,0,0,1-1.42,1.21,12.39,12.39,0,0,1-2.09,1,16.64,16.64,0,0,1-2.33.64,11,11,0,0,1-2.14.24,7.37,7.37,0,0,1-.78,0A3.6,3.6,0,0,1,151.67,81.58Zm5.34-9s-.06.1-.21.23l-.59.47-.8.61-.85.62-.74.51-.45.28a2.14,2.14,0,0,0,.71-.1,7,7,0,0,0,.87-.32,7.8,7.8,0,0,0,.9-.47,8.13,8.13,0,0,0,.8-.54,3.61,3.61,0,0,0,.57-.54.81.81,0,0,0,.22-.49s-.07-.06-.22-.1Z"/><path class="cls-3" d="M169.26,81.26a4.23,4.23,0,0,1,0-1.16,7.77,7.77,0,0,1,.29-1.13,8.82,8.82,0,0,1,.46-1.11l.54-1.08q.46-.89.81-1.72a4.11,4.11,0,0,0,.36-1.62,2.64,2.64,0,0,0-.06-.55,2.18,2.18,0,0,0-1.31.33,10.74,10.74,0,0,0-1.6,1.09q-.85.68-1.74,1.53t-1.72,1.68q-.85.85-1.62,1.57a11.63,11.63,0,0,1-1.39,1.14,1.83,1.83,0,0,1-1,.4q-.44,0-.61-.65s.1-.22.31-.63.47-.91.78-1.51l1-2q.56-1.07,1.07-2t.89-1.55a3.32,3.32,0,0,1,.48-.69,2.32,2.32,0,0,1,.66.65,1.23,1.23,0,0,1,.19.63,1.8,1.8,0,0,1-.09.55c-.06.18-.12.36-.19.53l-.08.24-.08.24,1.5-1q.87-.56,1.79-1.07a16.22,16.22,0,0,1,1.79-.85,4.23,4.23,0,0,1,1.52-.35,1.28,1.28,0,0,1,1.41,1.5,4.83,4.83,0,0,1-.19,1.19,13.31,13.31,0,0,1-.6,1.7l0,0-.14.31-.23.53-.3.67-.33.72L171.35,79q-.27.59-.33.75a.28.28,0,0,0,0,.12.41.41,0,0,0,0,.13.63.63,0,0,1,0,.15,6.3,6.3,0,0,1-.15.82,1.5,1.5,0,0,1-.39.72.44.44,0,0,1-.35.15.72.72,0,0,1-.35-.11,1.93,1.93,0,0,1-.29-.22.83.83,0,0,1-.15-.16Z"/><path class="cls-3" d="M175.25,81.54a.55.55,0,0,1-.32-.49,1,1,0,0,1,.29-.57,3.84,3.84,0,0,1,.73-.6q.46-.31,1-.61t1.18-.59l1.17-.54h0l1.06-.51c.3-.14.5-.25.6-.32q.69-.65.69-.91t-.26-.32a3.12,3.12,0,0,0-.67-.25q-.42-.11-.93-.2l-1-.17c-.4-.05-.78-.12-1.16-.19a6.84,6.84,0,0,1-1-.27,2.26,2.26,0,0,1-.71-.39.73.73,0,0,1-.27-.58,1.16,1.16,0,0,1,.29-.67,4,4,0,0,1,.92-.81l0,0q.32-.24,1-.67t1.39-.9q.74-.46,1.48-.85a5.43,5.43,0,0,1,1.28-.51,1.14,1.14,0,0,1,.53,0,1.53,1.53,0,0,1,.86.56.66.66,0,0,1,.15.4.87.87,0,0,1-.5.75l-.67.38-.67.36-1.86,1q-.89.49-1.58.95a23.29,23.29,0,0,1,2.65.44,8.3,8.3,0,0,1,1.76.59,2.7,2.7,0,0,1,1,.73,1.36,1.36,0,0,1,.3.83,1.81,1.81,0,0,1-.59,1.22,8,8,0,0,1-1.49,1.2,17.45,17.45,0,0,1-2,1.08q-1.08.5-2,.85a13,13,0,0,1-1.66.49q-.7.15-.86,0Z"/><path class="cls-3" d="M186.4,81.36a1.22,1.22,0,0,1,0-.46.72.72,0,0,1,.09-.4l.06-.2q.12-.38.3-1l.36-1.27.34-1.18q.16-.54.24-.78a.07.07,0,0,0,0-.06s0,0,0-.06a2.15,2.15,0,0,1,.13-.44,1.19,1.19,0,0,0,.09-.45,5.78,5.78,0,0,0-.71.12l-.64.14a3.78,3.78,0,0,1-.68.06,1.58,1.58,0,0,1-.81-.21,1.55,1.55,0,0,1-.59-.74,1.92,1.92,0,0,1,.46-.69,2.08,2.08,0,0,1,.6-.4,3,3,0,0,1,.68-.2L187,73a9.05,9.05,0,0,0,1-.17,1.23,1.23,0,0,0,.74-.45l.26-.71q.14-.4.28-.85.2-.61.45-1.32t.51-1.4q.27-.7.56-1.39a11.91,11.91,0,0,1,.63-1.26c.28-.18.51-.22.69-.1a1.26,1.26,0,0,1,.45.52,2.38,2.38,0,0,1,.22.73,2.28,2.28,0,0,1,0,.5h0a4.85,4.85,0,0,1-.33.91l-.46,1c-.21.46-.41.93-.59,1.41a3.71,3.71,0,0,0-.28,1.35q0,.16,0,.14s0,0,0,.12h4.67a.43.43,0,0,1,.37.22l.25.38a.66.66,0,0,1,0,.62.83.83,0,0,1-.5.34,3.78,3.78,0,0,1-.87.14l-1.11,0-1.2,0a8.65,8.65,0,0,0-1.16.13,3.77,3.77,0,0,0-.93.29,1,1,0,0,0-.53.51q-.61,1.56-1.13,3.13t-1,3.15a2.15,2.15,0,0,1-.31.38,1.72,1.72,0,0,1-.49.37.76.76,0,0,1-.53.06q-.27-.07-.41-.54Z"/><path class="cls-3" d="M195.77,81.56a1.67,1.67,0,0,1,0-.58q0-.56.14-1.42t.27-1.87q.17-1,.38-1.95t.45-1.65a2.59,2.59,0,0,1,.49-1,.74.74,0,0,1,.37-.23.41.41,0,0,1,.31.06,1,1,0,0,1,.26.26l.24.35.1.16.1.12a17.46,17.46,0,0,1,1.42-1.7,8.8,8.8,0,0,1,1.72-1.4,3.44,3.44,0,0,1,.53-.24q.42-.16,1-.31t1.11-.27a5.06,5.06,0,0,1,1-.12,1.69,1.69,0,0,1,.79.16.59.59,0,0,1,.3.57,1.81,1.81,0,0,1-.36.87,4.54,4.54,0,0,0-1.91.46A8,8,0,0,0,202.72,73a11.69,11.69,0,0,0-1.52,1.58,21.06,21.06,0,0,0-1.31,1.82q-.59.93-1.09,1.83l-.89,1.63q-.47.91-.82,1.46c-.23.37-.45.55-.66.55a.81.81,0,0,1-.29-.08,2.45,2.45,0,0,1-.35-.18h.14Z"/><path class="cls-3" d="M207.07,81.12q.67-2.16,1.29-3.7a25.93,25.93,0,0,1,1.14-2.53,8.5,8.5,0,0,1,.92-1.46q.4-.46.63-.47t.36.63a5.78,5.78,0,0,1-.23,1.79,22,22,0,0,1-.94,2.79,29.55,29.55,0,0,1-1.78,3.61,1.34,1.34,0,0,1-.76.06.78.78,0,0,1-.6-.47Zm4.06-10.92a1,1,0,0,1,0-.23,2.15,2.15,0,0,1,0-.36c0-.13,0-.24,0-.36a1,1,0,0,1,.07-.25l.45-.14a1.5,1.5,0,0,1,.32,0,1,1,0,0,1,.81.32,1.22,1.22,0,0,1,.24.75,1.49,1.49,0,0,1-.27.85.78.78,0,0,1-.66.4.82.82,0,0,1-.52-.2,1.8,1.8,0,0,1-.47-.71Z"/><path class="cls-3" d="M215.38,81.58a2.35,2.35,0,0,1-1.44-1.12,3.6,3.6,0,0,1-.39-1.65,6.4,6.4,0,0,1,.08-1,6.06,6.06,0,0,1,.24-1l.45-.48.46-.53q.67-.73,1.48-1.57T218,72.63a18.56,18.56,0,0,1,1.82-1.44,9.58,9.58,0,0,1,1.87-1,1,1,0,0,1,.68-.07.85.85,0,0,1,.47.36,1.85,1.85,0,0,1,.26.66,4.29,4.29,0,0,1,.08.83,6,6,0,0,1,0,.76,6,6,0,0,1-.14.73,6.41,6.41,0,0,1-.19.61,1.35,1.35,0,0,1-.22.41,4.3,4.3,0,0,1-1.07.78q-.75.43-1.66.9l-1.5.8q-.77.43-1.4.84a7.17,7.17,0,0,0-1,.81,1.09,1.09,0,0,0-.41.71q0,.26.42.51l.22,0h.22a9.27,9.27,0,0,0,1.35-.11q.73-.11,1.5-.29t1.54-.4l1.46-.42,1-.27.88-.23.71.57a4.58,4.58,0,0,1-1.42,1.21,12.39,12.39,0,0,1-2.09,1,16.62,16.62,0,0,1-2.33.64,11,11,0,0,1-2.14.24,7.38,7.38,0,0,1-.78,0A3.59,3.59,0,0,1,215.38,81.58Zm5.34-9s-.06.1-.21.23l-.59.47-.8.61-.85.62-.74.51-.45.28a2.14,2.14,0,0,0,.71-.1,7,7,0,0,0,.87-.32,7.84,7.84,0,0,0,.9-.47,8.28,8.28,0,0,0,.8-.54,3.6,3.6,0,0,0,.57-.54.8.8,0,0,0,.22-.49s-.07-.06-.22-.1Z"/><path class="cls-3" d="M225,81.16a.6.6,0,0,1-.07-.19,1.22,1.22,0,0,1,0-.28,1.21,1.21,0,0,1,0-.28.61.61,0,0,1,.07-.19c.16-.36.3-.69.44-1l.39-.93q.19-.46.4-.92l.45-1H225c-.07,0-.14-.06-.21-.17a2.13,2.13,0,0,1-.2-.41,2.44,2.44,0,0,1-.13-.49.8.8,0,0,1,0-.41,1.56,1.56,0,0,0,.36-.11l.45-.18.42-.17.25-.12.38-.12L227,74l.62-.23a1.47,1.47,0,0,0,.32-.15,3.47,3.47,0,0,0,.61-1l.89-1.76q.38-.79.82-1.68t.94-1.76q.49-.87,1-1.66a9.81,9.81,0,0,1,1.14-1.39,5.59,5.59,0,0,1,1.24-1,2.69,2.69,0,0,1,1.32-.36,2.74,2.74,0,0,1,1.35.38,4.89,4.89,0,0,1,1.37,1.25,1.78,1.78,0,0,1,.32.65,1.68,1.68,0,0,1,0,.81.9.9,0,0,1-.6.19,1.39,1.39,0,0,1-.53-.16,1.68,1.68,0,0,1-.43-.33,2.28,2.28,0,0,1-.29-.36,7,7,0,0,0-.87-.06,3.27,3.27,0,0,0-1.42.28,3.21,3.21,0,0,0-1,.75,4.9,4.9,0,0,0-.74,1.12q-.32.64-.63,1.38l-.38.83q-.2.44-.42.85t-.38.69l-.42.8-.49.94v.24c0-.11.09-.16.22-.17a2.54,2.54,0,0,1,.48,0l1,.14a9,9,0,0,1,1,.22,5.18,5.18,0,0,1,.94.36,1.77,1.77,0,0,1,.67.55l-.59.57-1,0h-.87a6.93,6.93,0,0,0-1.33.11,2.83,2.83,0,0,0-1,.41,3.24,3.24,0,0,0-.84.83,9.64,9.64,0,0,0-.8,1.39q-.18.4-.49,1L227.12,80q-.3.59-.53,1c-.16.3-.24.45-.26.47l-.44.46-.21-.14-.27-.21a2,2,0,0,1-.25-.23Z"/></g></g></svg>