<svg xmlns="http://www.w3.org/2000/svg" width="1351" height="398" viewBox="0 0 1351 398">
  <defs>
    <style>
      .cls-1 {
        fill: #a5aaad;
      }

      .cls-1, .cls-2, .cls-3 {
        fill-rule: evenodd;
      }

      .cls-2 {
        fill: #01a7e1;
      }

      .cls-3 {
        fill: #424b54;
      }
    </style>
  </defs>
  <path id="SNOMED_CT_copy" data-name="SNOMED CT copy" class="cls-1" d="M0.51,153.778s20.532,25.665,57.2,25.665c34.22,0,54.751-22.732,54.751-49.13,0-56.706-83.1-48.885-83.1-83.837,0-12.954,11.732-23.22,30.309-23.22,13.688,0,26.642,6.6,26.642,15.643v8.066H108.79V32.788c0-23.465-30.8-31.775-49.129-31.775-32.508,0-55.24,20.287-55.24,46.2,0,53.773,83.349,48.152,83.349,84.326,0,15.888-13.443,25.665-29.575,25.665-25.665,0-43.263-20.776-43.263-20.776ZM119.538,176.51h24.687c11,0,15.643-4.644,15.643-15.644V67.252c0-9.532-1.466-23.465-1.466-23.465h0.488s7.822,14.177,14.177,23.465L250.061,176.51h22V30.343c0-3.666,1.956-5.377,5.378-5.377h10.51V3.946H263.5c-11.243,0-15.887,4.644-15.887,15.643V113.2a234.557,234.557,0,0,0,1.711,23.464h-0.489s-8.066-14.176-14.421-23.464L157.668,3.946H135.426V150.112c0,3.422-1.956,5.377-5.378,5.377h-10.51V176.51Zm173.776-87.5c0,50.841,38.619,90.438,88.481,90.438s88.727-39.6,88.727-90.438c0-49.618-38.864-87.993-88.727-87.993S293.314,39.387,293.314,89.006Zm25.42,0c0-36.908,28.109-65.261,63.061-65.261S445.1,52.1,445.1,89.006c0,38.131-28.354,67.462-63.307,67.462S318.734,127.136,318.734,89.006Zm152.754,87.5h21.754c11.244,0,15.155-4.644,15.888-15.644l6.844-91.17c0.733-10.266.489-25.665,0.489-25.665h0.489s5.132,16.621,9.288,25.665l34.952,75.772h20.532L616.677,69.7c4.155-9.288,9.044-25.42,9.044-25.42h0.489s-0.245,15.154.488,25.42l7.089,91.17c0.733,11,4.644,15.644,15.643,15.644h21.754V155.489h-8.066c-3.422,0-5.133-1.955-5.378-5.377L646.008,3.946H620.832L580.258,95.361c-4.156,9.289-8.555,21.754-8.555,21.754h-0.489s-4.4-12.465-8.555-21.754L522.084,3.946H496.909L485.176,150.112c-0.244,3.422-1.955,5.377-5.377,5.377h-8.311V176.51Zm217.527-15.644c0,11,4.644,15.644,15.643,15.644h76.75c11,0,15.643-4.644,15.643-15.644V139.113H774.564v11c0,3.422-1.956,5.377-5.378,5.377H718.835c-3.422,0-5.378-1.955-5.378-5.377V100.005H773.83V78.984H713.457V24.966h49.13c3.422,0,5.377,1.711,5.377,5.377v11h22.243V19.589c0-11-4.644-15.643-15.643-15.643H673.127V24.966h15.888v135.9Zm126.6,0c0,11,4.644,15.644,15.644,15.644h38.374c52.552,0,87.26-31.776,87.26-86.527,0-54.507-34.708-86.038-87.26-86.038h-69.9V24.966h15.887v135.9Zm24.443-10.754V24.966h27.864c38.131,0,63.551,22.732,63.551,65.017,0,42.53-25.176,65.506-63.551,65.506H845.439C842.017,155.489,840.062,153.534,840.062,150.112Z"/>
  <path id="SNOMED_CT_copy_2" data-name="SNOMED CT copy 2" class="cls-2" d="M1014.81,88.761c0,50.841,35.93,90.682,87.51,90.682,43.5,0,67.95-28.842,67.95-28.842l-13.2-17.6s-20.29,23.465-54.51,23.465c-35.2,0-62.33-30.064-62.33-67.706,0-38.864,26.89-65.017,61.6-65.017,17.35,0,41.79,7.333,41.79,21.754v9.777h22.49V38.41c0-27.62-41.55-37.4-64.77-37.4C1051.97,1.012,1014.81,38.9,1014.81,88.761Zm216.31,87.749h24.44V24.966h34.71c3.42,0,5.38,1.711,5.38,5.377v11h21.75V18.611c0-11-3.67-14.665-14.66-14.665H1183.95c-11,0-14.67,3.666-14.67,14.665V41.343h21.75v-11c0-3.666,1.96-5.377,5.38-5.377h34.71V176.51Z"/>
  <path id="The_global_language_of_healthcare_copy" data-name="The global language of healthcare copy" class="cls-3" d="M1024.33,268.817h6.74V227.075h9.56a1.318,1.318,0,0,1,1.48,1.481v3.029h5.99v-6.261c0-3.03-1.01-4.04-4.04-4.04h-32.72c-3.03,0-4.04,1.01-4.04,4.04v6.261h5.99v-3.029a1.318,1.318,0,0,1,1.48-1.481h9.56v41.742Zm26.87,0h6.53V252.861a13.843,13.843,0,0,1,.6-4.511,11.224,11.224,0,0,1,10.77-8.416c5.46,0,6.47,3.77,6.47,8.551v16.023c0,3.03,1.28,4.309,4.31,4.309h6.39v-5.588h-2.76a1.318,1.318,0,0,1-1.48-1.481V247c0-8.685-3.63-13.061-11.65-13.061a13.853,13.853,0,0,0-12.65,7.608h-0.14a27.354,27.354,0,0,0,.14-2.828V225.459c0-2.9-1.28-4.175-4.31-4.175h-6.47v5.589h2.76a1.321,1.321,0,0,1,1.49,1.481v40.463Zm35.47-17.033c0,10.1,7.34,17.841,18.12,17.841a19.93,19.93,0,0,0,13.12-4.982L1115.09,260a15.678,15.678,0,0,1-9.97,3.973c-6.06,0-11.31-4.107-11.71-11.379h24.84s0.2-1.817.2-2.693c0-8.819-5.11-15.956-14.67-15.956C1094.08,233.942,1086.67,240.944,1086.67,251.784Zm7.01-3.973c1.01-5.655,5.05-8.685,10.03-8.685,4.24,0,7.81,3.03,8.01,8.685h-18.04Zm41.6,3.165c0,9.829,5.79,17.437,15.22,17.437,4.98,0,8.14-1.885,10.16-5.184h0.14a19.157,19.157,0,0,0-.14,2.155v2.289c0,6.867-4.84,9.493-10.77,9.493a21.44,21.44,0,0,1-9.29-2.289l-2.22,5.251a26.761,26.761,0,0,0,11.65,2.828c8.61,0,17.16-4.309,17.16-15.553V241.685a1.317,1.317,0,0,1,1.49-1.347h2.69V234.75h-6.33c-2.69,0-3.77,1.414-3.77,3.434v1.077h-0.14s-2.42-5.319-10.9-5.319C1140.73,233.942,1135.28,241.213,1135.28,250.976Zm16.5,11.782c-6.13,0-9.83-4.848-9.83-11.917,0-6.935,3.36-11.244,9.29-11.244,5.25,0,9.63,2.559,9.63,11.446S1156.49,262.758,1151.78,262.758Zm23.29,1.75c0,3.03,1.28,4.309,4.31,4.309h6.46v-5.588h-2.76a1.318,1.318,0,0,1-1.48-1.481V225.593c0-3.029-1.28-4.309-4.31-4.309h-6.46v5.589h2.76a1.318,1.318,0,0,1,1.48,1.481v36.154Zm11.51-12.792c0,10.369,8.15,17.909,18.31,17.909s18.38-7.54,18.38-17.909c0-10.3-8.21-17.774-18.38-17.774S1186.58,241.415,1186.58,251.716Zm6.67,0c0-7.069,5.25-12.119,11.64-12.119,6.47,0,11.72,5.05,11.72,12.119,0,7.137-5.25,12.254-11.72,12.254C1198.5,263.97,1193.25,258.853,1193.25,251.716Zm33.93,17.1h6.26v-2.356a22.016,22.016,0,0,0-.14-2.559h0.14a12.276,12.276,0,0,0,10.7,5.723c8.96,0,15.49-7,15.49-17.841,0-10.571-5.79-17.842-14.95-17.842-8.01,0-10.97,5.588-10.97,5.588h-0.14a27.354,27.354,0,0,0,.14-2.828V225.593c0-3.029-1.28-4.309-4.31-4.309h-6.46v5.589h2.76a1.318,1.318,0,0,1,1.48,1.481v40.463Zm6.39-16.9c0-8.685,4.72-12.253,9.77-12.253,5.72,0,9.69,4.78,9.69,12.186,0,7.743-4.44,12.186-9.83,12.186C1236.74,264.037,1233.57,257.978,1233.57,251.918Zm27.34,7.339c0,6.8,5.72,10.368,11.58,10.368a11.648,11.648,0,0,0,10.84-6.732h0.13a15.257,15.257,0,0,0-.13,2.019c0,2.424,1.21,3.905,4.24,3.905h6.12v-5.588h-2.76a1.318,1.318,0,0,1-1.48-1.481V247.273c0-7.541-2.96-13.331-14-13.331-3.3,0-11.78.808-11.78,6.4V243.7h6.12v-1.952c0-2.222,3.98-2.626,5.59-2.626,5.32,0,7.54,2.155,7.54,8.147v0.336h-1.48C1275.72,247.609,1260.91,248.283,1260.91,259.257Zm6.59-.337c0-6.261,8.89-6.53,13.81-6.53h1.68v1.144c0,5.05-3.57,10.84-9.09,10.84C1269.59,264.374,1267.5,261.681,1267.5,258.92Zm29.76,5.588c0,3.03,1.28,4.309,4.31,4.309h6.46v-5.588h-2.76a1.318,1.318,0,0,1-1.48-1.481V225.593c0-3.029-1.28-4.309-4.31-4.309h-6.46v5.589h2.76a1.318,1.318,0,0,1,1.48,1.481v36.154Zm-285.38,58.334c0,3.029,1.28,4.309,4.31,4.309h6.46v-5.589h-2.76a1.318,1.318,0,0,1-1.48-1.481V283.927c0-3.03-1.28-4.309-4.31-4.309h-6.46v5.588h2.76a1.318,1.318,0,0,1,1.48,1.481v36.155Zm11.58-5.252c0,6.8,5.72,10.369,11.58,10.369a11.648,11.648,0,0,0,10.84-6.733h0.13a15.264,15.264,0,0,0-.13,2.02c0,2.423,1.21,3.905,4.24,3.905h6.13v-5.589h-2.76a1.321,1.321,0,0,1-1.49-1.481V305.606c0-7.541-2.96-13.331-14-13.331-3.3,0-11.78.808-11.78,6.4v3.367h6.13v-1.953c0-2.222,3.97-2.626,5.58-2.626,5.32,0,7.54,2.155,7.54,8.147v0.337h-1.48C1038.27,305.943,1023.46,306.616,1023.46,317.59Zm6.6-.336c0-6.262,8.88-6.531,13.8-6.531h1.68v1.144c0,5.05-3.57,10.84-9.09,10.84C1032.14,322.707,1030.06,320.014,1030.06,317.254Zm29.89,9.9h6.53V311.194a14.007,14.007,0,0,1,.6-4.578,11.045,11.045,0,0,1,10.78-8.349c5.45,0,6.39,3.771,6.39,8.551v16.024c0,3.029,1.28,4.309,4.31,4.309h6.46v-5.589h-2.76a1.318,1.318,0,0,1-1.48-1.481V305.337c0-8.685-3.63-13.062-11.71-13.062a13.852,13.852,0,0,0-12.79,7.81h-0.14a13.782,13.782,0,0,0,.14-1.952v-1.28c0-2.491-1.42-3.77-4.31-3.77h-6.26v5.588h2.76a1.319,1.319,0,0,1,1.48,1.482v27Zm35.54-17.842c0,9.83,5.79,17.438,15.22,17.438,4.98,0,8.15-1.885,10.17-5.185h0.13a20.631,20.631,0,0,0-.13,2.155v2.289c0,6.867-4.85,9.493-10.78,9.493a21.5,21.5,0,0,1-9.29-2.289l-2.22,5.252a26.8,26.8,0,0,0,11.65,2.827c8.62,0,17.17-4.309,17.17-15.552V300.018a1.309,1.309,0,0,1,1.48-1.347h2.69v-5.588h-6.33c-2.69,0-3.77,1.414-3.77,3.434v1.077h-0.13s-2.43-5.319-10.91-5.319C1100.95,292.275,1095.49,299.547,1095.49,309.309Zm16.5,11.782c-6.13,0-9.83-4.847-9.83-11.917,0-6.934,3.37-11.243,9.29-11.243,5.25,0,9.63,2.558,9.63,11.445S1116.7,321.091,1111.99,321.091Zm23.29-6.194c0,9.022,3.91,13.062,11.58,13.062a13.653,13.653,0,0,0,12.52-7.81h0.14s-0.07.875-.07,1.952v1.279c0,2.424,1.42,3.771,4.31,3.771h6.26v-5.589h-2.76a1.318,1.318,0,0,1-1.48-1.481v-27h-6.53V309.04c0,6.732-4.11,12.859-11.11,12.859-5.39,0-6.33-3.77-6.33-8.483V297.257c0-2.895-1.28-4.174-4.37-4.174h-6.4v5.588h2.76a1.319,1.319,0,0,1,1.48,1.482V314.9Zm35.35,2.693c0,6.8,5.72,10.369,11.58,10.369a11.648,11.648,0,0,0,10.84-6.733h0.13a15.264,15.264,0,0,0-.13,2.02c0,2.423,1.21,3.905,4.24,3.905h6.12v-5.589h-2.76a1.318,1.318,0,0,1-1.48-1.481V305.606c0-7.541-2.96-13.331-14-13.331-3.3,0-11.78.808-11.78,6.4v3.367h6.12v-1.953c0-2.222,3.98-2.626,5.59-2.626,5.32,0,7.54,2.155,7.54,8.147v0.337h-1.48C1185.44,305.943,1170.63,306.616,1170.63,317.59Zm6.59-.336c0-6.262,8.89-6.531,13.81-6.531h1.68v1.144c0,5.05-3.57,10.84-9.09,10.84C1179.31,322.707,1177.22,320.014,1177.22,317.254Zm26.66-7.945c0,9.83,5.79,17.438,15.22,17.438,4.98,0,8.15-1.885,10.17-5.185h0.13a20.631,20.631,0,0,0-.13,2.155v2.289c0,6.867-4.85,9.493-10.78,9.493a21.5,21.5,0,0,1-9.29-2.289l-2.22,5.252a26.8,26.8,0,0,0,11.65,2.827c8.62,0,17.17-4.309,17.17-15.552V300.018a1.309,1.309,0,0,1,1.48-1.347h2.69v-5.588h-6.33c-2.69,0-3.77,1.414-3.77,3.434v1.077h-0.13s-2.43-5.319-10.91-5.319C1209.34,292.275,1203.88,299.547,1203.88,309.309Zm16.5,11.782c-6.13,0-9.83-4.847-9.83-11.917,0-6.934,3.36-11.243,9.29-11.243,5.25,0,9.63,2.558,9.63,11.445S1225.09,321.091,1220.38,321.091Zm20.13-10.974c0,10.1,7.34,17.842,18.11,17.842a19.939,19.939,0,0,0,13.13-4.983l-2.83-4.645a15.68,15.68,0,0,1-9.97,3.972c-6.05,0-11.31-4.107-11.71-11.378h24.84s0.21-1.818.21-2.693c0-8.82-5.12-15.957-14.68-15.957C1247.91,292.275,1240.51,299.277,1240.51,310.117Zm7-3.972c1.01-5.656,5.05-8.686,10.03-8.686,4.24,0,7.81,3.03,8.01,8.686h-18.04Zm41.54,3.905c0,10.368,8.14,17.909,18.31,17.909s18.38-7.541,18.38-17.909c0-10.3-8.21-17.775-18.38-17.775S1289.05,299.749,1289.05,310.05Zm6.66,0c0-7.07,5.25-12.119,11.65-12.119,6.46,0,11.71,5.049,11.71,12.119,0,7.136-5.25,12.253-11.71,12.253C1300.96,322.3,1295.71,317.186,1295.71,310.05Zm34.81,17.1h6.53V298.335h8.08v-5.252h-8.08v-1.01c0-6.328,4.58-7.136,7.14-7.136a9.446,9.446,0,0,1,1.68.134v-5.588a14.007,14.007,0,0,0-2.49-.2c-4.31,0-12.86,1.414-12.86,12.658v1.144h-4.24v5.252h4.24v28.816Zm-318.78,58.333h6.53V369.527a13.837,13.837,0,0,1,.61-4.51,11.215,11.215,0,0,1,10.77-8.416c5.46,0,6.47,3.77,6.47,8.55v16.024c0,3.03,1.28,4.309,4.31,4.309h6.39V379.9h-2.76a1.318,1.318,0,0,1-1.48-1.481V363.67c0-8.685-3.64-13.061-11.65-13.061a13.882,13.882,0,0,0-12.66,7.608h-0.13s0.13-1.212.13-2.828V342.125c0-2.895-1.27-4.174-4.3-4.174h-6.47v5.588h2.76a1.314,1.314,0,0,1,1.48,1.481v40.464Zm35.48-17.034c0,10.1,7.34,17.842,18.11,17.842a19.941,19.941,0,0,0,13.13-4.982l-2.83-4.646a15.638,15.638,0,0,1-9.96,3.972c-6.06,0-11.31-4.107-11.71-11.378h24.84s0.2-1.818.2-2.693c0-8.82-5.12-15.956-14.68-15.956C1054.63,350.609,1047.22,357.611,1047.22,368.45Zm7-3.972c1.01-5.656,5.05-8.685,10.04-8.685,4.24,0,7.81,3.029,8.01,8.685h-18.05Zm26.87,11.446c0,6.8,5.72,10.368,11.58,10.368a11.648,11.648,0,0,0,10.84-6.733h0.13a15.264,15.264,0,0,0-.13,2.02c0,2.424,1.21,3.9,4.24,3.9h6.12V379.9h-2.76a1.318,1.318,0,0,1-1.48-1.481V363.939c0-7.54-2.96-13.33-14-13.33-3.3,0-11.78.808-11.78,6.4v3.366h6.12v-1.952c0-2.222,3.98-2.626,5.59-2.626,5.32,0,7.54,2.154,7.54,8.146v0.337h-1.48C1095.9,364.276,1081.09,364.949,1081.09,375.924Zm6.59-.337c0-6.262,8.89-6.531,13.81-6.531h1.68V370.2c0,5.049-3.57,10.839-9.09,10.839C1089.77,381.04,1087.68,378.347,1087.68,375.587Zm29.76,5.588c0,3.03,1.28,4.309,4.31,4.309h6.46V379.9h-2.76a1.318,1.318,0,0,1-1.48-1.481V342.26c0-3.03-1.28-4.309-4.31-4.309h-6.46v5.588h2.76a1.319,1.319,0,0,1,1.48,1.481v36.155Zm15.08-8.147c0,11.379,8.69,12.725,13,12.725a16.552,16.552,0,0,0,2.28-.134v-5.791a7.725,7.725,0,0,1-1.54.135c-2.5,0-7.21-.875-7.21-7.675v-15.62h8.15v-5.251h-8.15v-9.359h-6.39v9.359h-4.58v5.251h4.44v16.36Zm19.32,12.456h6.53V369.527a13.837,13.837,0,0,1,.61-4.51,11.215,11.215,0,0,1,10.77-8.416c5.46,0,6.47,3.77,6.47,8.55v16.024c0,3.03,1.27,4.309,4.3,4.309h6.4V379.9h-2.76a1.318,1.318,0,0,1-1.48-1.481V363.67c0-8.685-3.64-13.061-11.65-13.061a13.87,13.87,0,0,0-12.66,7.608h-0.13s0.13-1.212.13-2.828V342.125c0-2.895-1.28-4.174-4.31-4.174h-6.46v5.588h2.76a1.319,1.319,0,0,1,1.48,1.481v40.464Zm35.48-17.034c0,10.234,7.48,17.842,18.18,17.842a18.762,18.762,0,0,0,13.87-5.858l-2.83-4.645a15.318,15.318,0,0,1-10.57,4.713c-6.33,0-11.98-4.376-11.98-12.119,0-7.2,4.98-12.186,11.64-12.186,2.5,0,6.33,1.077,6.33,3.5v1.885h5.93v-3.5c0-5.79-8.15-7.473-12.26-7.473C1194.66,350.609,1187.32,358.419,1187.32,368.45Zm32.59,7.474c0,6.8,5.72,10.368,11.58,10.368a11.648,11.648,0,0,0,10.84-6.733h0.13a15.264,15.264,0,0,0-.13,2.02c0,2.424,1.21,3.9,4.24,3.9h6.12V379.9h-2.76a1.318,1.318,0,0,1-1.48-1.481V363.939c0-7.54-2.96-13.33-14-13.33-3.3,0-11.78.808-11.78,6.4v3.366h6.12v-1.952c0-2.222,3.98-2.626,5.59-2.626,5.32,0,7.54,2.154,7.54,8.146v0.337h-1.48C1234.72,364.276,1219.91,364.949,1219.91,375.924Zm6.59-.337c0-6.262,8.89-6.531,13.81-6.531h1.68V370.2c0,5.049-3.57,10.839-9.09,10.839C1228.59,381.04,1226.5,378.347,1226.5,375.587Zm29.9,9.9h6.53V371.547a20.888,20.888,0,0,1,.8-6.126c1.55-5.05,5.39-8.012,9.56-8.012a9.763,9.763,0,0,1,1.96.2v-6.464a13.351,13.351,0,0,0-1.75-.134c-5.26,0-9.16,3.905-10.78,8.887h-0.13a20.487,20.487,0,0,0,.13-2.357v-2.154c0-2.761-1.41-3.972-4.37-3.972h-6.2v5.588h2.76a1.321,1.321,0,0,1,1.49,1.481v27Zm18.04-17.034c0,10.1,7.34,17.842,18.11,17.842a19.941,19.941,0,0,0,13.13-4.982l-2.83-4.646a15.671,15.671,0,0,1-9.96,3.972c-6.06,0-11.32-4.107-11.72-11.378h24.84s0.21-1.818.21-2.693c0-8.82-5.12-15.956-14.68-15.956C1281.84,350.609,1274.44,357.611,1274.44,368.45Zm7-3.972c1.01-5.656,5.05-8.685,10.03-8.685,4.24,0,7.81,3.029,8.01,8.685h-18.04Z"/>
</svg>
